<svg width="234" height="79" viewBox="0 0 234 79" fill="none" xmlns="http://www.w3.org/2000/svg">
<path d="M48.6183 30.1368V21.7472H74.8552C73.9797 19.9926 72.9579 18.28 71.8161 16.6551H62.1328V6.97271C60.5079 5.83057 58.7948 4.80871 57.0412 3.93364V16.6551H48.6183V0.877509C46.9036 0.467509 45.1912 0.173246 43.526 -8.74185e-05V35.2279H78.786C78.6104 33.5587 78.3151 31.8462 77.9047 30.1368H48.6183Z" fill="#312969"/>
<path d="M35.2151 0.00662091C33.5427 0.182754 31.8307 0.479023 30.1235 0.888489V18.1942L30.0421 18.1134L17.9989 6.07075C16.55 7.00248 15.1573 8.03168 13.8573 9.12902L30.0651 25.3358L30.1235 25.2785V37.0014L30.0421 36.9208L8.1672 15.0457C7.10107 16.4113 6.11973 17.8514 5.25 19.3279L16.1443 30.2238L16.0188 30.2166C15.5427 30.1863 15.1229 30.1708 14.7349 30.1708H0.876534C0.467201 31.8853 0.172933 33.5994 0 35.2629H14.7349C23.1521 35.2629 30.0203 42.1082 30.0427 50.5213L30.0417 77.8833L30.0869 77.8937C31.7896 78.3035 33.5052 78.6014 35.186 78.7801C35.186 78.7801 35.2057 78.7827 35.2151 78.7827V48.667H43.5751V78.7853C45.2459 78.6098 46.9588 78.3123 48.6667 77.9025V62.7462L48.7479 62.827L59.4615 73.5405C60.9385 72.6707 62.3787 71.6899 63.7448 70.6238L48.6667 55.5457V48.667H53.3953L69.6615 64.9337C70.7584 63.6342 71.7875 62.241 72.7197 60.7905L60.5964 48.667H77.9021C78.312 46.9598 78.6088 45.2473 78.7844 43.5759H35.2151V0.00662091Z" fill="#312969"/>
<path d="M14.3172 43.5759H0.0057373C0.181737 45.2462 0.477605 46.9582 0.888005 48.667H14.3172C15.586 48.667 16.6183 49.6994 16.6183 50.9686V57.0571H3.94214C4.81827 58.8123 5.84174 60.5265 6.98387 62.1499H16.6183V71.7905C18.2417 72.9337 19.9541 73.9582 21.7099 74.8374V50.9686C21.7099 46.8921 18.3937 43.5759 14.3172 43.5759Z" fill="#312969"/>
<path d="M91.1213 35.1301H95.3265V16.2124H101.864V12.4364H84.5521V16.2124H91.1213V35.1301Z" fill="#312969"/>
<path d="M104.841 25.2462C105.008 23.4484 106.664 22.0561 108.672 22.0561C110.671 22.0561 112.089 23.3322 112.24 25.2462H104.841ZM108.772 35.5265C113.071 35.5265 115.315 33.0093 116.269 31.5077L116.329 31.4129L113.525 29.2837L113.455 29.3973C113.003 30.1222 111.8 32.0468 108.969 32.0468C105.703 32.0468 104.932 29.5265 104.751 28.2957H116.189V28.1744C116.189 28.0446 116.197 27.8722 116.205 27.702C116.215 27.5265 116.221 27.3504 116.221 27.2166C116.221 21.952 113.4 18.8088 108.672 18.8088C104.125 18.8088 100.825 22.2618 100.825 27.0181C100.825 32.1066 104.019 35.5265 108.772 35.5265Z" fill="#312969"/>
<path d="M126.607 35.5265C130.381 35.5265 132.744 33.1561 133.619 31.128L133.663 31.0249L130.407 29.2905L130.357 29.417C129.665 31.164 128.471 32.0145 126.705 32.0145C124.256 32.0145 122.735 30.1509 122.735 27.1509C122.735 24.1056 124.219 22.288 126.705 22.288C128.88 22.288 129.836 23.7864 130.255 25.0432L130.301 25.1796L133.66 23.4113L133.621 23.3104C132.515 20.4494 129.957 18.8088 126.607 18.8088C121.913 18.8088 118.76 22.188 118.76 27.2166C118.76 32.3426 121.767 35.5265 126.607 35.5265Z" fill="#312969"/>
<path d="M146.465 24.0823C146.681 24.8228 146.724 25.7671 146.724 27.052V35.1301H150.732V26.0943C150.732 22.9 150.352 21.7609 149.651 20.7723C148.651 19.4285 147.204 18.7765 145.228 18.7765C143.143 18.7765 141.364 19.5692 140.464 20.8713V12.4364H136.457V35.1301H140.464V26.59C140.464 23.8973 141.684 22.3531 143.808 22.3531C145.253 22.3531 146.123 22.9192 146.465 24.0823Z" fill="#312969"/>
<path d="M164.729 24.0823C164.945 24.8228 164.988 25.7671 164.988 27.052V35.1301H168.996V26.0943C168.996 22.9 168.616 21.7609 167.913 20.7723C166.915 19.4285 165.468 18.7765 163.492 18.7765C161.408 18.7765 159.629 19.5692 158.728 20.8713V19.1723H154.721V35.1301H158.728V26.59C158.728 23.8973 159.947 22.3531 162.073 22.3531C163.519 22.3531 164.387 22.9192 164.729 24.0823Z" fill="#312969"/>
<path d="M176.992 12.4363H172.985V16.5109H176.992V12.4363Z" fill="#312969"/>
<path d="M176.992 19.1723H172.985V35.1301H176.992V19.1723Z" fill="#312969"/>
<path d="M184.328 25.2462C184.493 23.4484 186.149 22.0561 188.157 22.0561C190.157 22.0561 191.576 23.3322 191.727 25.2462H184.328ZM195.755 31.5077L195.815 31.4129L193.012 29.2837L192.941 29.3973C192.488 30.1222 191.287 32.0468 188.456 32.0468C185.189 32.0468 184.417 29.5265 184.237 28.2957H195.676V28.1744C195.676 28.0446 195.684 27.8722 195.691 27.702C195.7 27.5265 195.708 27.3504 195.708 27.2166C195.708 21.952 192.885 18.8088 188.157 18.8088C183.612 18.8088 180.311 22.2618 180.311 27.0181C180.311 32.1066 183.505 35.5265 188.257 35.5265C192.556 35.5265 194.801 33.0093 195.755 31.5077Z" fill="#312969"/>
<path d="M203.171 30.1437L205.339 28.1613L210.049 35.1301H215.036L208.192 25.4156L214.537 19.1723H209.337L203.171 25.4337V12.4364H199.164V35.1301H203.171V30.1437Z" fill="#312969"/>
<path d="M100.498 51.6332C100.498 53.7775 100.528 56.353 100.547 58.056C100.553 58.5415 100.558 58.9503 100.561 59.2503C100.153 58.5858 99.4639 57.4858 99.0707 56.8816L90.4838 43.9842H86.5989V66.6775H90.7713V59.0612C90.7713 55.668 90.7437 52.5508 90.7161 51.1759C90.7702 51.266 90.8306 51.367 90.8926 51.4702C91.1614 51.9207 91.5311 52.5379 91.901 53.1196L100.785 66.6775H104.669V43.9842H100.498V51.6332Z" fill="#312969"/>
<path d="M111.855 56.7946C112.021 54.9946 113.677 53.6046 115.685 53.6046C117.684 53.6046 119.103 54.8801 119.253 56.7946H111.855ZM120.468 60.9451C120.016 61.6691 118.812 63.5951 115.983 63.5951C112.716 63.5951 111.945 61.0743 111.764 59.8442H123.201V59.7227C123.201 59.591 123.211 59.4207 123.219 59.2489C123.227 59.0727 123.236 58.8989 123.236 58.7645C123.236 53.5003 120.412 50.3566 115.685 50.3566C111.139 50.3566 107.839 53.8103 107.839 58.5666C107.839 63.6551 111.032 67.0743 115.784 67.0743C120.083 67.0743 122.327 64.5561 123.283 63.0551L123.343 62.9613L120.539 60.8322L120.468 60.9451Z" fill="#312969"/>
<path d="M133.647 63.5613C131.257 63.5613 129.773 61.6983 129.773 58.6994C129.773 55.6785 131.257 53.8019 133.647 53.8019C135.964 53.8019 137.52 55.7697 137.52 58.6994C137.52 61.6525 135.999 63.5613 133.647 63.5613ZM137.355 52.2227C136.513 51.2946 134.921 50.3227 132.855 50.3227C128.615 50.3227 125.765 53.715 125.765 58.7645C125.765 63.6561 128.681 67.0743 132.855 67.0743C134.705 67.0743 136.253 66.4389 137.355 65.2333V66.6775H141.361V43.9842H137.355V52.2227Z" fill="#312969"/>
<path d="M148.419 56.7946C148.585 54.9946 150.243 53.6046 152.249 53.6046C154.248 53.6046 155.668 54.8801 155.819 56.7946H148.419ZM157.033 60.9451C156.58 61.6691 155.377 63.5951 152.548 63.5951C149.281 63.5951 148.511 61.0743 148.329 59.8442H159.767V59.7227C159.767 59.591 159.776 59.4207 159.784 59.2489C159.792 59.0727 159.801 58.8989 159.801 58.7645C159.801 53.5003 156.977 50.3566 152.249 50.3566C147.703 50.3566 144.404 53.8103 144.404 58.5666C144.404 63.6551 147.596 67.0743 152.351 67.0743C156.648 67.0743 158.892 64.5561 159.848 63.0551L159.908 62.9613L157.104 60.8322L157.033 60.9451Z" fill="#312969"/>
<path d="M171.632 50.3227C169.161 50.3227 167.761 51.603 167.164 52.6212V50.7186H163.156V66.6775H167.164V59.491C167.164 58.1332 167.291 57.2175 167.584 56.4327C168.141 55.0212 169.281 54.3634 171.169 54.3634C171.493 54.3634 171.859 54.3972 172.215 54.4284L172.348 54.4399V50.3686L172.239 50.3566C171.903 50.3227 171.833 50.3227 171.632 50.3227Z" fill="#312969"/>
<path d="M175.419 66.6775H179.427V43.9842H175.419V66.6775Z" fill="#312969"/>
<path d="M192.687 59.1593V60.8973C192.687 62.8279 191.469 63.9363 189.352 63.9363C187.689 63.9363 186.773 63.2186 186.773 61.9181C186.773 60.8191 187.373 60.3442 189.244 59.9634L190.692 59.6681C191.717 59.4555 192.196 59.327 192.687 59.1593ZM196.517 62.8722V55.1046C196.517 51.9666 194.383 50.3738 190.175 50.3738C188.444 50.3738 186.061 50.6994 184.541 52.2446C183.629 53.1733 183.18 54.4009 183.205 55.8957L183.207 56.0077L186.973 56.2555L186.971 56.1222C186.957 55.3243 187.163 54.703 187.58 54.2765C188.079 53.7713 188.895 53.5145 190.009 53.5145C191.836 53.5145 192.687 54.103 192.687 55.367V55.6301C192.687 56.1222 192.628 56.1681 191.8 56.3347L188.343 56.9259C186.019 57.3389 184.52 58.0327 183.628 59.1098C183.012 59.8713 182.712 60.8009 182.712 61.9503C182.712 65.0718 184.877 67.0109 188.363 67.0109C190.451 67.0109 192.012 66.4779 193.005 65.4275C193.34 66.4613 194.245 66.9442 195.836 66.9442C196.784 66.9442 197.292 66.8451 197.536 66.7967L197.736 66.7618V64.0675H197.415C196.624 64.0675 196.517 63.8279 196.517 62.8722Z" fill="#312969"/>
<path d="M209.601 50.3227C207.516 50.3227 205.739 51.116 204.837 52.4191V50.7186H200.829V66.6775H204.837V58.1368C204.837 55.4451 206.056 53.9008 208.183 53.9008C209.628 53.9008 210.496 54.4666 210.839 55.629C211.055 56.3702 211.097 57.3155 211.097 58.5994V66.6775H215.104V57.642C215.104 54.4483 214.725 53.3087 214.024 52.3207C213.024 50.977 211.577 50.3227 209.601 50.3227Z" fill="#312969"/>
<path d="M225.888 63.5613C223.5 63.5613 222.016 61.6983 222.016 58.6994C222.016 55.6785 223.5 53.8019 225.888 53.8019C228.204 53.8019 229.761 55.7697 229.761 58.6994C229.761 61.6525 228.241 63.5613 225.888 63.5613ZM229.596 43.9842V52.2227C228.755 51.2946 227.163 50.3227 225.095 50.3227C220.856 50.3227 218.008 53.715 218.008 58.7645C218.008 63.6561 220.923 67.0743 225.095 67.0743C226.947 67.0743 228.496 66.4389 229.596 65.2333V66.6775H233.603V43.9842H229.596Z" fill="#312969"/>
</svg>
