<svg version="1.0" xmlns="http://www.w3.org/2000/svg" width="720" height="438" viewBox="0 0 720 438"
     preserveAspectRatio="xMidYMid meet">
    <rect width="100%" height="100%" fill="#FFFFFF"/>
    <g transform="translate(0.000000,438.000000) scale(0.100000,-0.100000)" stroke="none">
        <path d="M0 2190 l0 -2190 3600 0 3600 0 0 2190 0 2190 -3600 0 -3600 0 0 -2190z m1230 205 l5 -1700 23 -43 c35 -66 88 -119 150 -149 49 -24 69 -28 142 -28 70 0 94 4 135 25 70 34 139 108 164 175 21 55 21 63 21 1503 0 1203 3 1458 14 1513 56 262 307 439 570 401 204 -29 381 -188 425 -382 7 -30 11 -527 11 -1481 0 -916 4 -1455 10 -1489 21 -109 90 -198 188 -243 70 -32 199 -31 267 2 63 32 124 93 156 156 l24 50 5 1490 c6 1616 2 1510 62 1629 94 186 313 298 520 268 196 -28 349 -158 422 -357 8 -21 12 -475 16 -1520 6 -1704 -4 -1542 99 -1646 161 -161 420 -119 521 86 l25 50 5 1495 5 1495 22 59 c29 75 57 120 113 180 59 63 114 101 197 133 94 36 237 38 334 5 164 -56 283 -183 333 -351 14 -49 16 -217 16 -1633 l0 -1578 480 0 480 0 0 -95 0 -95 -570 0 -570 0 -2 1668 -3 1667 -29 62 c-33 72 -95 134 -164 166 -70 32 -199 31 -267 -2 -63 -32 -124 -93 -156 -156 l-24 -50 -5 -1490 c-4 -1209 -8 -1498 -19 -1530 -84 -252 -316 -403 -563 -367 -186 27 -334 144 -411 325 l-22 52 -5 1495 c-5 1421 -6 1497 -23 1542 -26 67 -97 141 -165 175 -49 24 -69 28 -142 28 -70 0 -94 -5 -135 -25 -64 -31 -124 -92 -156 -155 l-24 -50 -5 -1495 -5 -1495 -24 -60 c-52 -130 -144 -234 -256 -289 -275 -134 -590 -9 -707 282 l-23 57 -5 1490 c-6 1704 4 1542 -99 1646 -158 157 -403 123 -510 -71 l-36 -65 -5 -1495 -5 -1495 -22 -59 c-29 -75 -57 -120 -113 -180 -59 -63 -114 -101 -197 -133 -94 -36 -237 -38 -334 -5 -165 57 -290 190 -334 357 -13 52 -15 254 -15 1652 l0 1593 -515 0 -515 0 0 95 0 95 608 -2 607 -3 5 -1700z"
              fill="#372462"/>
    </g>
</svg>
